<svg width="42" height="47" viewBox="0 0 42 47" fill="none" xmlns="http://www.w3.org/2000/svg">
<path opacity="0.6" d="M27.9993 0H25.666C19.0664 0 15.7665 0 13.7163 2.05025C11.666 4.10051 11.666 7.40033 11.666 14V32.6667C11.666 39.2663 11.666 42.5661 13.7163 44.6164C15.7665 46.6666 19.0664 46.6666 25.666 46.6666H27.9993C34.5989 46.6666 37.8987 46.6666 39.949 44.6164C41.9993 42.5661 41.9993 39.2663 41.9993 32.6667V14C41.9993 7.40033 41.9993 4.10051 39.949 2.05025C37.8987 0 34.5989 0 27.9993 0Z" fill="white" fill-opacity="0.7"/>
<path opacity="0.4" d="M11.6667 13.9997C11.6667 10.4121 11.6667 7.7997 11.996 5.83301H11.6667C6.16695 5.83301 3.4171 5.83301 1.70854 7.54154C-1.39077e-07 9.2501 0 12 0 17.4997V29.1663C0 34.666 -1.39077e-07 37.4158 1.70854 39.1245C3.4171 40.833 6.16695 40.833 11.6667 40.833H11.996C11.6667 38.8662 11.6667 36.2538 11.6667 32.6663V25.083V21.583V13.9997Z" fill="white" fill-opacity="0.7"/>
<path fill-rule="evenodd" clip-rule="evenodd" d="M3.42857 22.0958C2.74516 22.7792 2.74516 23.8871 3.42857 24.5705L8.09524 29.2372C8.77865 29.9206 9.8867 29.9206 10.5701 29.2372C11.2535 28.5538 11.2535 27.4459 10.5701 26.7625L8.89088 25.0832H25.666C26.6325 25.0832 27.416 24.2996 27.416 23.3332C27.416 22.3667 26.6325 21.5832 25.666 21.5832H8.89088L10.5701 19.9039C11.2535 19.2204 11.2535 18.1125 10.5701 17.4291C9.8867 16.7457 8.77865 16.7457 8.09524 17.4291L3.42857 22.0958Z" fill="white" fill-opacity="0.7"/>
</svg>
