<svg width="626" height="717" viewBox="0 0 626 717" fill="none" xmlns="http://www.w3.org/2000/svg">
<path d="M467.167 208.5C467.167 177.347 467.167 161.77 460.467 150.167C456.08 142.566 449.767 136.254 442.167 131.866C430.563 125.167 414.987 125.167 383.833 125.167H83.8333C52.6793 125.167 37.1027 125.167 25.5 131.866C17.899 136.254 11.587 142.566 7.19866 150.167C0.499998 161.77 0.5 177.346 0.5 208.5C0.5 239.654 0.499998 255.231 7.19866 266.834C11.587 274.435 17.899 280.747 25.5 285.134C37.1027 291.834 52.6793 291.834 83.8333 291.834H383.833C414.987 291.834 430.563 291.834 442.167 285.134C449.767 280.747 456.08 274.435 460.467 266.834C467.167 255.231 467.167 239.654 467.167 208.5Z" fill="white" fill-opacity="0.7"/>
<path d="M467.167 508.5C467.167 477.347 467.167 461.77 460.467 450.167C456.08 442.567 449.767 436.254 442.167 431.867C430.563 425.167 414.987 425.167 383.833 425.167H183.833C152.679 425.167 137.103 425.167 125.5 431.867C117.899 436.254 111.587 442.567 107.199 450.167C100.5 461.77 100.5 477.347 100.5 508.5C100.5 539.654 100.5 555.23 107.199 566.834C111.587 574.434 117.899 580.747 125.5 585.134C137.103 591.834 152.679 591.834 183.833 591.834H383.833C414.987 591.834 430.563 591.834 442.167 585.134C449.767 580.747 456.08 574.434 460.467 566.834C467.167 555.23 467.167 539.654 467.167 508.5Z" fill="white" fill-opacity="0.7"/>
<path opacity="0.5" fill-rule="evenodd" clip-rule="evenodd" d="M600.5 716.834C586.693 716.834 575.5 705.64 575.5 691.834V25.167C575.5 11.36 586.693 0.166992 600.5 0.166992C614.307 0.166992 625.5 11.36 625.5 25.167V691.834C625.5 705.64 614.307 716.834 600.5 716.834Z" fill="white" fill-opacity="0.7"/>
</svg>
