<svg width="25" height="25" viewBox="0 0 25 25" fill="none" xmlns="http://www.w3.org/2000/svg">
<path opacity="0.5" d="M-0.000732422 12.4978C-0.000732422 6.60524 -0.000732571 3.65897 1.82985 1.82839C3.66043 -0.00219741 6.60671 -0.00219727 12.4993 -0.00219727C18.3918 -0.00219727 21.3381 -0.00219741 23.1686 1.82839C24.9993 3.65897 24.9993 6.60524 24.9993 12.4978C24.9993 18.3903 24.9993 21.3367 23.1686 23.1672C21.3381 24.9978 18.3918 24.9978 12.4993 24.9978C6.60671 24.9978 3.66043 24.9978 1.82985 23.1672C-0.000732571 21.3367 -0.000732422 18.3903 -0.000732422 12.4978Z" fill="white" fill-opacity="0.8"/>
<path d="M13.4368 6.2478C13.4368 5.73004 13.017 5.3103 12.4993 5.3103C11.9815 5.3103 11.5618 5.73004 11.5618 6.2478V12.7344L9.41218 10.5849C9.04606 10.2188 8.45246 10.2188 8.08635 10.5849C7.72024 10.9511 7.72024 11.5446 8.08635 11.9107L11.8364 15.6607C12.0121 15.8366 12.2506 15.9353 12.4993 15.9353C12.7479 15.9353 12.9864 15.8366 13.1621 15.6607L16.9121 11.9107C17.2783 11.5446 17.2783 10.9511 16.9121 10.5849C16.546 10.2188 15.9525 10.2188 15.5864 10.5849L13.4368 12.7344V6.2478Z" fill="white" fill-opacity="0.8"/>
<path d="M7.49829 17.8103C6.98053 17.8103 6.56079 18.2301 6.56079 18.7478C6.56079 19.2656 6.98053 19.6853 7.49829 19.6853H17.4983C18.016 19.6853 18.4358 19.2656 18.4358 18.7478C18.4358 18.2301 18.016 17.8103 17.4983 17.8103H7.49829Z" fill="white" fill-opacity="0.8"/>
</svg>
