<svg viewBox="0 0 717 567" fill="none" xmlns="http://www.w3.org/2000/svg">
<path d="M658.333 450C658.333 514.433 606.1 566.666 541.667 566.666C477.233 566.666 425 514.433 425 450C425 385.566 477.233 333.333 541.667 333.333C606.1 333.333 658.333 385.566 658.333 450Z" fill="white" fill-opacity="0.7"/>
<path fill-rule="evenodd" clip-rule="evenodd" d="M0 233.333C0 219.526 11.193 208.333 25 208.333H691.667C705.473 208.333 716.667 219.526 716.667 233.333C716.667 247.14 705.473 258.333 691.667 258.333H25C11.193 258.333 0 247.14 0 233.333Z" fill="white" fill-opacity="0.7"/>
<path opacity="0.5" d="M97.917 208.333L112.127 151.493C130.316 78.737 139.411 42.359 166.537 21.1793C193.663 0 231.16 0 306.157 0H410.51C485.507 0 523.004 0 550.13 21.1793C577.257 42.359 586.35 78.737 604.54 151.493L618.75 208.333H97.917Z" fill="white" fill-opacity="0.7"/>
<path d="M291.667 450C291.667 514.433 239.434 566.666 175.001 566.666C110.567 566.666 58.334 514.433 58.334 450C58.334 385.566 110.567 333.333 175.001 333.333C239.434 333.333 291.667 385.566 291.667 450Z" fill="white" fill-opacity="0.7"/>
<path opacity="0.5" d="M287.793 479.887C290.313 470.347 291.656 460.33 291.656 450C291.656 440.907 290.615 432.053 288.646 423.557L302.433 416.663C337.623 399.067 379.047 399.067 414.237 416.663L428 423.547C426.03 432.047 424.99 440.9 424.99 450C424.99 460.327 426.33 470.337 428.85 479.87L391.877 461.383C370.76 450.827 345.91 450.827 324.793 461.383L287.793 479.887Z" fill="white" fill-opacity="0.7"/>
</svg>
