<svg viewBox="0 0 717 717" fill="none" xmlns="http://www.w3.org/2000/svg">
<g opacity="0.5">
<path d="M425 50C488.56 50 533.717 50.053 567.973 54.6587C601.507 59.1677 620.83 67.623 634.937 81.73C649.043 95.837 657.5 115.159 662.007 148.695C666.613 182.95 666.667 228.106 666.667 291.667C666.667 305.473 677.86 316.667 691.667 316.667C705.473 316.667 716.667 305.473 716.667 291.667V289.786C716.667 228.528 716.667 180.006 711.563 142.033C706.307 102.952 695.237 71.3203 670.293 46.3747C645.347 21.4293 613.713 10.3587 574.633 5.10468C536.66 -0.000986954 488.14 -0.00065156 426.88 1.51067e-05H425C411.193 1.51067e-05 400 11.193 400 25C400 38.807 411.193 50 425 50Z" fill="white" fill-opacity="0.75"/>
<path d="M289.786 1.51067e-05H291.667C305.473 1.51067e-05 316.667 11.193 316.667 25C316.667 38.807 305.473 50 291.667 50C228.106 50 182.95 50.053 148.695 54.6587C115.159 59.1677 95.837 67.623 81.73 81.73C67.623 95.837 59.1677 115.159 54.6587 148.695C50.053 182.95 50 228.106 50 291.667C50 305.473 38.807 316.667 25 316.667C11.193 316.667 1.51067e-05 305.473 1.51067e-05 291.667V289.786C-0.00065156 228.528 -0.000986954 180.006 5.10468 142.033C10.3587 102.952 21.4293 71.3203 46.3747 46.3747C71.3203 21.4293 102.952 10.3587 142.033 5.10468C180.006 -0.000986954 228.528 -0.00065156 289.786 1.51067e-05Z" fill="white" fill-opacity="0.75"/>
<path d="M691.667 400C705.473 400 716.667 411.193 716.667 425V426.88C716.667 488.14 716.667 536.66 711.563 574.633C706.307 613.713 695.237 645.347 670.293 670.293C645.347 695.237 613.713 706.307 574.633 711.563C536.66 716.667 488.14 716.667 426.88 716.667H425C411.193 716.667 400 705.473 400 691.667C400 677.86 411.193 666.667 425 666.667C488.56 666.667 533.717 666.613 567.973 662.007C601.507 657.5 620.83 649.043 634.937 634.937C649.043 620.83 657.5 601.507 662.007 567.973C666.613 533.717 666.667 488.56 666.667 425C666.667 411.193 677.86 400 691.667 400Z" fill="white" fill-opacity="0.75"/>
<path d="M50 425C50 411.193 38.807 400 25 400C11.193 400 1.51067e-05 411.193 1.51067e-05 425V426.88C-0.00065156 488.14 -0.000986954 536.66 5.10468 574.633C10.3587 613.713 21.4293 645.347 46.3747 670.293C71.3203 695.237 102.952 706.307 142.033 711.563C180.006 716.667 228.528 716.667 289.786 716.667H291.667C305.473 716.667 316.667 705.473 316.667 691.667C316.667 677.86 305.473 666.667 291.667 666.667C228.106 666.667 182.95 666.613 148.695 662.007C115.159 657.5 95.837 649.043 81.73 634.937C67.623 620.83 59.1677 601.507 54.6587 567.973C50.053 533.717 50 488.56 50 425Z" fill="white" fill-opacity="0.75"/>
</g>
<path d="M142.574 142.574C125 160.147 125 188.431 125 245C125 282.712 125 301.57 136.716 313.283C148.431 325 167.288 325 205 325H245C282.712 325 301.57 325 313.283 313.283C325 301.57 325 282.712 325 245V205C325 167.288 325 148.431 313.283 136.716C301.57 125 282.712 125 245 125C188.431 125 160.147 125 142.574 142.574Z" fill="white" fill-opacity="0.75"/>
<path d="M142.574 574.093C125 556.519 125 528.236 125 471.666C125 433.953 125 415.096 136.716 403.383C148.431 391.666 167.288 391.666 205 391.666H245C282.712 391.666 301.57 391.666 313.283 403.383C325 415.096 325 433.953 325 471.666V511.666C325 549.379 325 568.236 313.283 579.949C301.57 591.666 282.713 591.666 245.001 591.666C188.433 591.666 160.147 591.666 142.574 574.093Z" fill="white" fill-opacity="0.75"/>
<path d="M391.668 205C391.668 167.288 391.668 148.431 403.385 136.716C415.098 125 433.955 125 471.668 125C528.238 125 556.521 125 574.095 142.574C591.668 160.147 591.668 188.431 591.668 245C591.668 282.712 591.668 301.57 579.951 313.283C568.238 325 549.381 325 511.668 325H471.668C433.955 325 415.098 325 403.385 313.283C391.668 301.57 391.668 282.712 391.668 245V205Z" fill="white" fill-opacity="0.75"/>
<path d="M403.385 579.949C391.668 568.236 391.668 549.379 391.668 511.666V471.666C391.668 433.953 391.668 415.096 403.385 403.383C415.098 391.666 433.955 391.666 471.668 391.666H511.668C549.381 391.666 568.238 391.666 579.951 403.383C591.668 415.096 591.668 433.953 591.668 471.666C591.668 528.233 591.668 556.519 574.095 574.093C556.521 591.666 528.238 591.666 471.668 591.666C433.958 591.666 415.098 591.666 403.385 579.949Z" fill="white" fill-opacity="0.75"/>
</svg>
