<svg viewBox="0 0 667 559" fill="none" xmlns="http://www.w3.org/2000/svg">
<path opacity="0.5" d="M266.667 533.333H400C421.983 533.333 442.043 533.333 460.393 533.123L446.967 519.7C417.677 490.41 417.677 442.923 446.967 413.633C459.49 401.113 475.337 393.943 491.667 392.127V333.333C491.667 291.913 525.247 258.333 566.667 258.333C608.087 258.333 641.667 291.913 641.667 333.333V392.127C649.13 392.957 656.49 394.903 663.48 397.97C666.667 363.907 666.667 321.2 666.667 266.667C666.667 251.937 666.667 213.067 666.603 200H0.0629981C-1.86265e-06 213.067 0 251.937 0 266.667C0 392.373 3.97364e-06 455.23 39.0523 494.28C78.105 533.333 140.959 533.333 266.667 533.333Z" fill="white" fill-opacity="0.75"/>
<path fill-rule="evenodd" clip-rule="evenodd" d="M548.991 551.011C558.754 560.774 574.581 560.774 584.344 551.011L651.011 484.344C660.774 474.581 660.774 458.754 651.011 448.991C641.248 439.227 625.421 439.227 615.658 448.991L591.668 472.977V333.334C591.668 319.527 580.474 308.334 566.668 308.334C552.861 308.334 541.668 319.527 541.668 333.334V472.977L517.678 448.991C507.914 439.227 492.088 439.227 482.324 448.991C472.561 458.754 472.561 474.581 482.324 484.344L548.991 551.011Z" fill="white" fill-opacity="0.75"/>
<path d="M350 375C336.193 375 325 386.193 325 400C325 413.807 336.193 425 350 425H400C413.807 425 425 413.807 425 400C425 386.193 413.807 375 400 375H350Z" fill="white" fill-opacity="0.75"/>
<path d="M133.334 375C119.527 375 108.334 386.193 108.334 400C108.334 413.807 119.527 425 133.334 425H266.667C280.474 425 291.667 413.807 291.667 400C291.667 386.193 280.474 375 266.667 375H133.334Z" fill="white" fill-opacity="0.75"/>
<path d="M266.495 0H400.173C526.203 0 589.22 -3.97364e-06 628.373 37.1927C656.563 63.972 664.457 102.502 666.667 166.667V200H0V166.667C2.21 102.502 10.1033 63.972 38.2937 37.1927C77.4467 -3.97364e-06 140.463 0 266.495 0Z" fill="white" fill-opacity="0.75"/>
</svg>
