<svg viewBox="0 0 667 667" fill="none" xmlns="http://www.w3.org/2000/svg">
<path opacity="0.5" d="M333.333 0C176.198 0 97.631 -3.97364e-06 48.8157 48.8157C-3.97364e-06 97.631 0 176.198 0 333.333C0 490.467 -3.97364e-06 569.037 48.8157 617.85C97.631 666.667 176.198 666.667 333.333 666.667C490.467 666.667 569.037 666.667 617.85 617.85C666.667 569.037 666.667 490.467 666.667 333.333C666.667 176.198 666.667 97.631 617.85 48.8157C569.037 -3.97364e-06 490.467 0 333.333 0Z" fill="white" fill-opacity="0.75"/>
<path d="M333.334 141.666C347.141 141.666 358.334 152.859 358.334 166.666V366.666C358.334 380.473 347.141 391.666 333.334 391.666C319.527 391.666 308.334 380.473 308.334 366.666V166.666C308.334 152.859 319.527 141.666 333.334 141.666Z" fill="white" fill-opacity="0.75"/>
<path d="M333.333 500C351.743 500 366.667 485.076 366.667 466.666C366.667 448.256 351.743 433.333 333.333 433.333C314.923 433.333 300 448.256 300 466.666C300 485.076 314.923 500 333.333 500Z" fill="white" fill-opacity="0.75"/>
</svg>
