<svg width="16" height="16" viewBox="0 0 16 16" fill="none" xmlns="http://www.w3.org/2000/svg">
<path d="M8 16C12.4183 16 16 12.4183 16 8C16 3.58172 12.4183 0 8 0C3.58172 0 0 3.58172 0 8C0 12.4183 3.58172 16 8 16ZM8 10.2857C6.73766 10.2857 5.71429 9.26234 5.71429 8C5.71429 6.73766 6.73766 5.71429 8 5.71429C9.26234 5.71429 10.2857 6.73766 10.2857 8C10.2857 9.26234 9.26234 10.2857 8 10.2857Z" fill="#B4ACBC"/>
<path d="M10.0203 5.97982C9.50318 5.46273 8.78889 5.14296 7.99992 5.14296C7.48398 5.14296 6.99998 5.2797 6.58215 5.51896L4.73855 2.29272C4.50385 1.88197 4.64483 1.35362 5.07975 1.1675C5.97609 0.783899 6.96323 0.571533 7.99992 0.571533C9.74312 0.571533 11.346 1.17195 12.6132 2.17726C12.9841 2.47148 12.9813 3.01867 12.6466 3.3534L10.0203 5.97982ZM5.97963 10.0204C6.49666 10.5375 7.21095 10.8572 7.99992 10.8572C8.51592 10.8572 8.99992 10.7205 9.41775 10.4812L11.2613 13.7075C11.496 14.1182 11.3551 14.6466 10.9201 14.8327C10.0237 15.2163 9.03666 15.4287 7.99992 15.4287C6.25678 15.4287 4.65381 14.8283 3.38665 13.823C3.01579 13.5287 3.01851 12.9815 3.35325 12.6468L5.97963 10.0204Z" fill="#F3EEF8"/>
</svg>
