<svg width="16" height="16" viewBox="0 0 16 16" fill="none" xmlns="http://www.w3.org/2000/svg">
<path d="M8 16C12.4183 16 16 12.4183 16 8C16 3.58172 12.4183 0 8 0C3.58172 0 0 3.58172 0 8C0 12.4183 3.58172 16 8 16ZM8 10.2857C6.73766 10.2857 5.71429 9.26234 5.71429 8C5.71429 6.73766 6.73766 5.71429 8 5.71429C9.26234 5.71429 10.2857 6.73766 10.2857 8C10.2857 9.26234 9.26234 10.2857 8 10.2857Z" fill="#FFB02E"/>
<path d="M7.99991 5.71439C7.58717 5.71439 7.19997 5.82382 6.86568 6.01519L4.73859 2.29272C4.50386 1.88197 4.64482 1.35362 5.07974 1.1675C5.97614 0.783899 6.96322 0.571533 7.99991 0.571533C9.74311 0.571533 11.346 1.17195 12.6132 2.17726C12.9841 2.47148 12.9814 3.01867 12.6467 3.3534L9.61619 6.38388C9.20254 5.97022 8.63111 5.71439 7.99991 5.71439ZM10.9201 14.8327C11.3551 14.6466 11.496 14.1182 11.2613 13.7075L9.13419 9.98502C8.79991 10.1764 8.41271 10.2858 7.99997 10.2858C7.36877 10.2858 6.79734 10.03 6.38368 9.61633L3.35325 12.6468C3.01851 12.9815 3.01579 13.5287 3.38665 13.823C4.65385 14.8283 6.25677 15.4287 7.99997 15.4287C9.03665 15.4287 10.0238 15.2163 10.9201 14.8327Z" fill="#FCD53F"/>
<path d="M7.99997 10.8571C9.57791 10.8571 10.8571 9.57791 10.8571 7.99997C10.8571 6.42202 9.57791 5.14282 7.99997 5.14282C6.42202 5.14282 5.14282 6.42202 5.14282 7.99997C5.14282 9.57791 6.42202 10.8571 7.99997 10.8571ZM7.99997 9.71425C7.05317 9.71425 6.28568 8.94677 6.28568 7.99997C6.28568 7.05317 7.05317 6.28568 7.99997 6.28568C8.94677 6.28568 9.71425 7.05317 9.71425 7.99997C9.71425 8.94677 8.94677 9.71425 7.99997 9.71425Z" fill="#FF822D"/>
</svg>
