<svg viewBox="0 0 668 668" fill="none" xmlns="http://www.w3.org/2000/svg">
<path opacity="0.5" d="M49.4824 618.517C98.2977 667.334 176.865 667.334 334 667.334C491.133 667.334 569.703 667.334 618.517 618.517C667.333 569.704 667.333 491.134 667.333 334C667.333 176.865 667.333 98.298 618.517 49.4827C569.703 0.666988 491.133 0.666992 334 0.666992C176.865 0.666992 98.2977 0.666988 49.4824 49.4827C0.666744 98.298 0.666748 176.865 0.666748 334C0.666748 491.134 0.666744 569.704 49.4824 618.517Z" fill="black" fill-opacity="0.7"/>
<path d="M100.667 217.327V184C100.667 156.386 123.052 134 150.667 134H517.333C544.947 134 567.333 156.386 567.333 184V217.327C553.407 206.866 536.093 200.667 517.333 200.667H150.667C131.907 200.667 114.594 206.866 100.667 217.327Z" fill="black" fill-opacity="0.7"/>
<path d="M100.667 317.327V284C100.667 256.386 123.052 234 150.667 234H517.333C544.947 234 567.333 256.386 567.333 284V317.327C553.407 306.867 536.093 300.667 517.333 300.667H150.667C131.907 300.667 114.594 306.867 100.667 317.327Z" fill="black" fill-opacity="0.7"/>
<path d="M625.667 434C625.667 420.193 614.473 409 600.667 409H566.643V375.677C562.68 352.023 542.113 334 517.333 334H150.667C125.888 334 105.319 352.023 101.356 375.677V409H67.3333C53.5263 409 42.3333 420.193 42.3333 434C42.3333 447.807 53.5263 459 67.3333 459H144.049C173.015 459 180.629 459.43 187.129 462.077C187.817 462.357 188.497 462.657 189.169 462.973C195.518 465.963 200.99 471.277 220.602 492.593L221.784 493.877L224.312 496.63C238.885 512.497 250.397 525.033 265.488 532.603C268.297 534.013 271.177 535.277 274.117 536.39C289.903 542.37 306.923 542.353 328.467 542.337L332.207 542.333L335.733 542.337C356.113 542.353 372.213 542.367 387.29 536.967C390.1 535.96 392.86 534.817 395.557 533.543C410.037 526.7 421.41 515.307 435.81 500.883L438.303 498.387L445.96 490.73C466.67 470.02 472.413 464.9 479.003 462.173C485.59 459.443 493.273 459 522.563 459H600.667C614.473 459 625.667 447.807 625.667 434Z" fill="black" fill-opacity="0.7"/>
</svg>
