<svg width="668" height="668" viewBox="0 0 668 668" fill="none" xmlns="http://www.w3.org/2000/svg">
<path opacity="0.5" d="M0.666992 334C0.666992 176.865 0.666988 98.298 49.4827 49.4827C98.298 0.666988 176.865 0.666992 334 0.666992C491.134 0.666992 569.704 0.666988 618.517 49.4827C667.334 98.298 667.334 176.865 667.334 334C667.334 491.134 667.334 569.704 618.517 618.517C569.704 667.334 491.134 667.334 334 667.334C176.865 667.334 98.298 667.334 49.4827 618.517C0.666988 569.704 0.666992 491.134 0.666992 334Z" fill="black" fill-opacity="0.7"/>
<path d="M383.604 148.864C396.94 152.437 404.854 166.146 401.28 179.483L315.007 501.457C311.434 514.794 297.724 522.71 284.387 519.137C271.05 515.56 263.137 501.854 266.711 488.517L352.984 166.542C356.557 153.205 370.267 145.29 383.604 148.864Z" fill="black" fill-opacity="0.7"/>
<path d="M432.99 216.322C442.754 206.559 458.58 206.559 468.344 216.322L475.29 223.267C496.467 244.443 514.127 262.103 526.26 278.007C539.07 294.793 548.054 312.53 548.054 334C548.054 355.47 539.07 373.207 526.26 389.993C514.127 405.897 496.467 423.557 475.29 444.733L468.344 451.677C458.58 461.44 442.754 461.44 432.99 451.677C423.227 441.913 423.227 426.087 432.99 416.323L438.707 410.603C461.43 387.88 476.657 372.58 486.51 359.663C495.924 347.327 498.054 340.143 498.054 334C498.054 327.857 495.924 320.673 486.51 308.337C476.657 295.42 461.43 280.12 438.707 257.397L432.99 251.678C423.227 241.915 423.227 226.086 432.99 216.322Z" fill="black" fill-opacity="0.7"/>
<path d="M199.662 216.322C209.425 206.559 225.254 206.559 235.018 216.322C244.781 226.086 244.781 241.915 235.018 251.678L229.298 257.397C206.577 280.12 191.351 295.42 181.496 308.337C172.082 320.673 169.954 327.857 169.954 334C169.954 340.143 172.082 347.327 181.496 359.663C191.351 372.58 206.577 387.88 229.298 410.603L235.018 416.323C244.781 426.087 244.781 441.913 235.018 451.677C225.254 461.44 209.425 461.44 199.662 451.677L192.717 444.733C171.539 423.557 153.88 405.897 141.745 389.993C128.937 373.207 119.954 355.47 119.954 334C119.954 312.53 128.937 294.793 141.745 278.007C153.88 262.103 171.539 244.444 192.717 223.267L199.662 216.322Z" fill="black" fill-opacity="0.7"/>
</svg>
