<svg viewBox="0 0 48 38" fill="none" xmlns="http://www.w3.org/2000/svg">
<path d="M40.4748 3.72539C37.3998 2.30039 34.1248 1.25039 30.6748 0.650391C30.2498 1.40039 29.7498 2.42539 29.4248 3.25039C25.7748 2.70039 22.1498 2.70039 18.5748 3.25039C18.2248 2.42539 17.7248 1.40039 17.2998 0.650391C13.8498 1.25039 10.5748 2.30039 7.4998 3.72539C1.2998 13.0754 -0.375197 22.2005 0.449803 31.1755C4.5748 34.2505 8.5498 36.1005 12.4748 37.3255C13.4498 36.0005 14.2998 34.5755 15.0498 33.1005C13.6248 32.5755 12.2748 31.9005 10.9998 31.1255C11.3498 30.8755 11.6748 30.6005 11.9998 30.3505C19.8248 34.0005 28.2998 34.0005 36.0248 30.3505C36.3498 30.6255 36.6748 30.8755 37.0248 31.1255C35.7498 31.9005 34.3748 32.5505 32.9748 33.1005C33.7248 34.5755 34.5748 36.0005 35.5498 37.3255C39.4748 36.1005 43.4748 34.2505 47.5748 31.1755C48.5498 20.7505 45.8998 11.7254 40.5248 3.72539H40.4748ZM16.0998 25.6755C13.7498 25.6755 11.8248 23.5005 11.8248 20.8255C11.8248 18.1505 13.6998 15.9755 16.0998 15.9755C18.4998 15.9755 20.3998 18.1505 20.3748 20.8255C20.3748 23.4755 18.4998 25.6755 16.0998 25.6755ZM31.8748 25.6755C29.5248 25.6755 27.5998 23.5005 27.5998 20.8255C27.5998 18.1505 29.4748 15.9755 31.8748 15.9755C34.2748 15.9755 36.1748 18.1505 36.1498 20.8255C36.1498 23.4755 34.2748 25.6755 31.8748 25.6755Z" fill="white"/>
</svg>
