<svg xmlns="http://www.w3.org/2000/svg" viewBox="0 0 24 24" fill="none">
  <path d="M8.87207 9.71094C8.86517 9.27726 8.94114 8.84702 9.09277 8.45117C9.22551 8.1047 9.41342 7.7918 9.64648 7.5293L9.74902 7.4209L9.75 7.41992C10.1518 7.00117 10.6882 6.72462 11.3525 6.59863L11.4102 6.58789V6.26855C11.4102 5.97791 11.5098 5.70095 11.6846 5.49805C11.8593 5.29544 12.094 5.18363 12.3359 5.18359C12.5779 5.18359 12.8126 5.29541 12.9873 5.49805C13.1622 5.70096 13.2617 5.97785 13.2617 6.26855V6.64355L13.3135 6.65723C13.725 6.77131 14.116 6.96906 14.4688 7.24023L14.6182 7.36035V7.36133C14.9102 7.60996 15.1518 7.93035 15.3252 8.2998L15.3955 8.46094C15.4628 8.62775 15.4929 8.81255 15.4824 8.99707C15.4745 9.13554 15.4434 9.27057 15.3926 9.39453L15.335 9.51465V9.51562C15.2491 9.67297 15.1307 9.80121 14.9922 9.88965C14.8536 9.97808 14.6986 10.0236 14.542 10.0234H14.4814C14.2986 10.0206 14.1189 9.95713 13.9648 9.83789C13.8491 9.74828 13.7508 9.63022 13.6777 9.49219L13.6133 9.34766V9.34668L13.5723 9.25293C13.4692 9.04099 13.3107 8.86865 13.1162 8.7627H13.1152L13.0723 8.73828L13.0371 8.79883L13.0723 8.7373L13.0674 8.73535L12.8418 8.64355C12.6131 8.56542 12.3745 8.52914 12.1348 8.53711H12.1328C11.9901 8.53538 11.8477 8.54799 11.707 8.57422L11.5654 8.60449C11.4414 8.63617 11.3219 8.68672 11.21 8.75391L11.1025 8.8252C10.9899 8.90251 10.8983 9.01296 10.8369 9.14355C10.7763 9.27262 10.7469 9.41767 10.751 9.56348C10.7463 9.69354 10.7758 9.82327 10.835 9.93555C10.8936 10.0467 10.9802 10.1365 11.085 10.1934V10.1943C11.2012 10.2617 11.3222 10.3183 11.4463 10.3633L11.5723 10.4043C11.6526 10.4314 11.7407 10.4592 11.8379 10.4883L12.1621 10.5801L13.6289 10.9814C14.2084 11.1397 14.6648 11.349 14.9932 11.6025L15.126 11.7139C15.6557 12.1986 15.9276 12.9067 15.9307 13.8271V13.8281C15.9366 14.2748 15.8555 14.7175 15.6934 15.1221C15.5516 15.4758 15.3518 15.7928 15.1055 16.0547L14.9971 16.1631L14.9951 16.1641C14.5621 16.5931 14.0028 16.8738 13.3174 17.001L13.2598 17.0117V17.3291L13.2559 17.4375C13.2344 17.6883 13.1385 17.923 12.9854 18.1006C12.8106 18.3032 12.5759 18.4141 12.334 18.4141L12.2441 18.4092C12.0347 18.3852 11.8356 18.278 11.6826 18.1006C11.5076 17.8976 11.4082 17.62 11.4082 17.3291V16.9863L11.3506 16.9756C10.7654 16.8706 10.2104 16.5991 9.73633 16.1836H9.7373C9.47091 15.9447 9.24706 15.6473 9.08008 15.3076L9.0127 15.1592H9.01172C8.95133 15.0203 8.91566 14.8678 8.90723 14.7119C8.89883 14.556 8.91784 14.3998 8.96289 14.2529C9.00796 14.106 9.07845 13.9719 9.16895 13.8584C9.25936 13.745 9.36821 13.655 9.48828 13.5928C9.60832 13.5306 9.73763 13.4975 9.86816 13.4951C9.9988 13.4928 10.1293 13.5213 10.251 13.5791C10.3725 13.6369 10.4838 13.7231 10.5771 13.833C10.6471 13.9155 10.7062 14.01 10.752 14.1133L10.793 14.2197C10.8313 14.3393 10.8862 14.4513 10.9551 14.5518L11.0127 14.5127L10.9551 14.5527L10.957 14.5557C11.1211 14.7674 11.3376 14.9192 11.5791 14.9893V14.9883C11.8282 15.0645 12.085 15.1003 12.3428 15.0957V15.0967L12.3438 15.0957L12.3457 15.0967L12.3447 15.0957C12.5353 15.0986 12.7256 15.0858 12.9141 15.0547L13.1016 15.0176H13.1025C13.1408 15.0083 13.1792 14.9982 13.2168 14.9863L13.3281 14.9463H13.3291C13.5461 14.8582 13.7111 14.7367 13.8213 14.5742C13.9039 14.4524 13.9532 14.3109 13.9727 14.1494L13.9824 13.9814C13.9853 13.8603 13.959 13.7398 13.9062 13.6338C13.8533 13.5278 13.7753 13.4396 13.6797 13.3799H13.6807C13.495 13.2608 13.297 13.1674 13.0918 13.1025H13.0908C13.0156 13.0759 12.9346 13.0498 12.8477 13.0244L12.5645 12.9482L11.6592 12.7168H11.6602L11.5127 12.6777C10.775 12.48 10.2507 12.2722 9.91309 12.0479L9.78027 11.9502H9.7793C9.1813 11.4752 8.8721 10.7268 8.87207 9.71191V9.71094Z" fill="white" stroke="white" stroke-width="0.140625"/>
  <path d="M12.4006 22.6C18.3653 22.6 23.2006 17.7647 23.2006 11.8C23.2006 5.83532 18.3653 1 12.4006 1C6.43591 1 1.60059 5.83532 1.60059 11.8C1.60059 17.7647 6.43591 22.6 12.4006 22.6Z" stroke="white" stroke-width="1.608" stroke-linecap="round" stroke-linejoin="round"/>
</svg>