<svg viewBox="0 0 717 625" fill="none" xmlns="http://www.w3.org/2000/svg">
<path d="M208.333 466.667C177.179 466.667 161.603 466.667 150 459.967C142.399 455.58 136.087 449.267 131.699 441.667C125 430.063 125 414.487 125 383.333V83.3333C125 52.1793 125 36.6027 131.699 25C136.087 17.399 142.399 11.087 150 6.69866C161.603 -2.48353e-06 177.179 0 208.333 0C239.487 0 255.064 -2.48353e-06 266.667 6.69866C274.268 11.087 280.58 17.399 284.968 25C291.667 36.6027 291.667 52.1793 291.667 83.3333V383.333C291.667 414.487 291.667 430.063 284.968 441.667C280.58 449.267 274.268 455.58 266.667 459.967C255.064 466.667 239.487 466.667 208.333 466.667Z" fill="white" fill-opacity="0.75"/>
<path d="M508.333 466.667C477.18 466.667 461.603 466.667 450 459.967C442.4 455.58 436.087 449.267 431.7 441.667C425 430.063 425 414.487 425 383.333V183.333C425 152.179 425 136.603 431.7 125C436.087 117.399 442.4 111.087 450 106.699C461.603 100 477.18 100 508.333 100C539.487 100 555.063 100 566.667 106.699C574.267 111.087 580.58 117.399 584.967 125C591.667 136.603 591.667 152.179 591.667 183.333V383.333C591.667 414.487 591.667 430.063 584.967 441.667C580.58 449.267 574.267 455.58 566.667 459.967C555.063 466.667 539.487 466.667 508.333 466.667Z" fill="white" fill-opacity="0.75"/>
<g opacity="0.5">
<path fill-rule="evenodd" clip-rule="evenodd" d="M0 600C0 586.193 11.193 575 25 575H691.667C705.473 575 716.667 586.193 716.667 600C716.667 613.807 705.473 625 691.667 625H25C11.193 625 0 613.807 0 600Z" fill="white" fill-opacity="0.75"/>
</g>
</svg>
