<svg viewBox="0 0 14 11" fill="none" xmlns="http://www.w3.org/2000/svg">
<path d="M6.125 11C6.125 11 5.25 11 5.25 10.0833C5.25 9.16667 6.125 6.41667 9.625 6.41667C13.125 6.41667 14 9.16667 14 10.0833C14 11 13.125 11 13.125 11H6.125ZM9.625 5.5C10.3212 5.5 10.9889 5.21027 11.4812 4.69454C11.9734 4.17882 12.25 3.47935 12.25 2.75C12.25 2.02065 11.9734 1.32118 11.4812 0.805456C10.9889 0.289731 10.3212 0 9.625 0C8.92881 0 8.26113 0.289731 7.76884 0.805456C7.27656 1.32118 7 2.02065 7 2.75C7 3.47935 7.27656 4.17882 7.76884 4.69454C8.26113 5.21027 8.92881 5.5 9.625 5.5ZM4.564 11C4.43429 10.7138 4.3696 10.4001 4.375 10.0833C4.375 8.84125 4.97 7.5625 6.069 6.67333C5.52045 6.49627 4.94896 6.40968 4.375 6.41667C0.875 6.41667 0 9.16667 0 10.0833C0 11 0.875 11 0.875 11H4.564ZM3.9375 5.5C4.51766 5.5 5.07406 5.25856 5.4843 4.82879C5.89453 4.39902 6.125 3.81612 6.125 3.20833C6.125 2.60055 5.89453 2.01765 5.4843 1.58788C5.07406 1.15811 4.51766 0.916667 3.9375 0.916667C3.35734 0.916667 2.80094 1.15811 2.3907 1.58788C1.98047 2.01765 1.75 2.60055 1.75 3.20833C1.75 3.81612 1.98047 4.39902 2.3907 4.82879C2.80094 5.25856 3.35734 5.5 3.9375 5.5Z" fill="white" fill-opacity="0.5"/>
</svg>
