<svg viewBox="0 0 584 693" fill="none" xmlns="http://www.w3.org/2000/svg">
<path opacity="0.5" fill-rule="evenodd" clip-rule="evenodd" d="M2.43581 423.987C7.97014 411.337 22.7108 405.567 35.3601 411.104L202.027 484.02C214.676 489.554 220.444 504.294 214.91 516.944C209.376 529.594 194.635 535.36 181.986 529.827L15.3195 456.91C2.6698 451.377 -3.09819 436.637 2.43581 423.987ZM581.577 423.987C587.11 436.637 581.343 451.377 568.693 456.91L35.3601 690.244C22.7108 695.777 7.97014 690.01 2.43581 677.36C-3.09819 664.71 2.6698 649.97 15.3195 644.437L548.653 411.104C561.303 405.567 576.043 411.337 581.577 423.987ZM352.437 577.11C357.97 564.46 372.71 558.694 385.36 564.227L568.693 644.437C581.343 649.97 587.11 664.71 581.577 677.36C576.043 690.01 561.303 695.777 548.653 690.244L365.32 610.037C352.67 604.5 346.9 589.76 352.437 577.11Z" fill="white" fill-opacity="0.7"/>
<path fill-rule="evenodd" clip-rule="evenodd" d="M278.667 434C349.777 434 492 392.717 492 227.582C492 126.534 430.373 53.2471 372.03 9.48706C342.1 -12.9636 303.763 10.3221 303.763 46.9657C303.763 71.7234 296.747 112.872 277.32 143.333C254.59 178.982 217.042 148.034 211.099 106.542C208.118 85.7341 185.213 77.1297 167.366 89.0917C132.28 112.609 92 157.673 92 227.582C92 392.717 216.444 434 278.667 434ZM399.183 243.388C412.41 247.355 419.913 261.293 415.947 274.517C406.983 304.397 369.813 359 292 359C278.193 359 267 347.807 267 334C267 320.194 278.193 309 292 309C342.187 309 363.683 274.717 368.053 260.15C372.023 246.925 385.96 239.421 399.183 243.388Z" fill="white" fill-opacity="0.7"/>
</svg>
