<svg viewBox="0 0 13 9" fill="none" xmlns="http://www.w3.org/2000/svg">
<path d="M9.94651 0.409048C9.94651 0.300561 9.99011 0.196519 10.0677 0.119807C10.1453 0.043096 10.2505 0 10.3603 0C10.47 0 10.5753 0.043096 10.6529 0.119807C10.7305 0.196519 10.7741 0.300561 10.7741 0.409048V7.60256L11.7224 6.6642C11.7609 6.62617 11.8066 6.596 11.8568 6.57542C11.9071 6.55484 11.961 6.54424 12.0154 6.54424C12.0698 6.54424 12.1237 6.55484 12.1739 6.57542C12.2242 6.596 12.2699 6.62617 12.3083 6.6642C12.3468 6.70223 12.3773 6.74738 12.3982 6.79707C12.419 6.84676 12.4297 6.90002 12.4297 6.95381C12.4297 7.00759 12.419 7.06085 12.3982 7.11054C12.3773 7.16023 12.3468 7.20538 12.3083 7.24341L10.6532 8.87879L10.6474 8.88451C10.5698 8.9594 10.4653 9.0009 10.3568 8.99999C10.2483 8.99907 10.1445 8.9558 10.0682 8.8796L8.41306 7.24341C8.33537 7.16671 8.29168 7.06264 8.2916 6.9541C8.29152 6.84555 8.33506 6.74142 8.41265 6.66461C8.49024 6.5878 8.59551 6.54461 8.70531 6.54453C8.81511 6.54446 8.92045 6.5875 8.99814 6.6642L9.94651 7.60256V0.409048ZM6.63631 0.818095C6.74605 0.818095 6.8513 0.774999 6.9289 0.698288C7.00649 0.621576 7.05009 0.517534 7.05009 0.409048C7.05009 0.300561 7.00649 0.196519 6.9289 0.119807C6.8513 0.043096 6.74605 0 6.63631 0H5.80876C5.69902 0 5.59378 0.043096 5.51618 0.119807C5.43858 0.196519 5.39499 0.300561 5.39499 0.409048C5.39499 0.517534 5.43858 0.621576 5.51618 0.698288C5.59378 0.774999 5.69902 0.818095 5.80876 0.818095H6.63631ZM6.63631 3.27238C6.74605 3.27238 6.8513 3.22928 6.9289 3.15257C7.00649 3.07586 7.05009 2.97182 7.05009 2.86333C7.05009 2.75485 7.00649 2.6508 6.9289 2.57409C6.8513 2.49738 6.74605 2.45429 6.63631 2.45429H4.15366C4.04392 2.45429 3.93868 2.49738 3.86108 2.57409C3.78348 2.6508 3.73989 2.75485 3.73989 2.86333C3.73989 2.97182 3.78348 3.07586 3.86108 3.15257C3.93868 3.22928 4.04392 3.27238 4.15366 3.27238H6.63631ZM6.63631 5.72667C6.74605 5.72667 6.8513 5.68357 6.9289 5.60686C7.00649 5.53015 7.05009 5.4261 7.05009 5.31762C7.05009 5.20913 7.00649 5.10509 6.9289 5.02838C6.8513 4.95167 6.74605 4.90857 6.63631 4.90857H2.49856C2.38882 4.90857 2.28358 4.95167 2.20598 5.02838C2.12838 5.10509 2.08479 5.20913 2.08479 5.31762C2.08479 5.4261 2.12838 5.53015 2.20598 5.60686C2.28358 5.68357 2.38882 5.72667 2.49856 5.72667H6.63631ZM7.05009 7.7719C7.05009 7.88039 7.00649 7.98443 6.9289 8.06114C6.8513 8.13785 6.74605 8.18095 6.63631 8.18095H0.843463C0.733723 8.18095 0.628477 8.13785 0.550879 8.06114C0.473281 7.98443 0.429688 7.88039 0.429688 7.7719C0.429688 7.66342 0.473281 7.55937 0.550879 7.48266C0.628477 7.40595 0.733723 7.36286 0.843463 7.36286H6.63631C6.74605 7.36286 6.8513 7.40595 6.9289 7.48266C7.00649 7.55937 7.05009 7.66342 7.05009 7.7719Z" fill="#FFFFF0"/>
</svg>
