<svg width="20" height="20" viewBox="0 0 20 20" fill="none" xmlns="http://www.w3.org/2000/svg">
<path d="M16.1999 8.74996H11.2849V7.88621L14.5087 3.23621V3.16871H11.3724V2.08496H16.1037V2.94871L12.8949 7.59871V7.66621H16.2012V8.74996H16.1999Z" fill="white"/>
<path fill-rule="evenodd" clip-rule="evenodd" d="M12.6026 15.7862L12.0801 17.5H10.7476L12.9838 10.835H14.5263L16.7526 17.5H15.3526L14.8288 15.7862H12.6026ZM14.5651 14.805L13.7501 12.11H13.6913L12.8763 14.805H14.5651Z" fill="white"/>
<path d="M5.62506 3.125C5.62506 2.95924 5.55921 2.80027 5.442 2.68306C5.32479 2.56585 5.16582 2.5 5.00006 2.5C4.8343 2.5 4.67533 2.56585 4.55812 2.68306C4.4409 2.80027 4.37506 2.95924 4.37506 3.125V15.3663L2.94256 13.9325C2.88445 13.8744 2.81546 13.8283 2.73954 13.7968C2.66361 13.7654 2.58224 13.7492 2.50006 13.7492C2.41788 13.7492 2.3365 13.7654 2.26058 13.7968C2.18465 13.8283 2.11567 13.8744 2.05756 13.9325C1.99945 13.9906 1.95335 14.0596 1.9219 14.1355C1.89045 14.2114 1.87427 14.2928 1.87427 14.375C1.87427 14.4572 1.89045 14.5386 1.9219 14.6145C1.95335 14.6904 1.99945 14.7594 2.05756 14.8175L4.55756 17.3162L4.56631 17.325C4.68365 17.4394 4.84146 17.5028 5.00535 17.5014C5.16924 17.5 5.32594 17.4339 5.44131 17.3175L7.94131 14.8175C8.05867 14.7003 8.12466 14.5413 8.12478 14.3754C8.1249 14.2096 8.05912 14.0505 7.94193 13.9331C7.82474 13.8158 7.66573 13.7498 7.49987 13.7497C7.33402 13.7495 7.17491 13.8153 7.05756 13.9325L5.62506 15.3663V3.125Z" fill="white"/>
</svg>
