<svg width="20" height="20" viewBox="0 0 20 20" fill="none" xmlns="http://www.w3.org/2000/svg">
<path d="M15.5474 2.08496V8.74996H14.2374V3.35496H14.1737L12.6599 4.42871V3.21746L14.2374 2.08496H15.5449H15.5474Z" fill="white"/>
<path fill-rule="evenodd" clip-rule="evenodd" d="M14.2 17.6224C12.7787 17.6224 12.065 16.8011 11.9975 16.0249H13.2525C13.325 16.3036 13.6812 16.5874 14.2187 16.5874C15.2487 16.5874 15.6737 15.5511 15.635 14.2674H15.5612C15.3762 14.7549 14.8487 15.1949 13.985 15.1949C12.8475 15.1949 11.835 14.4286 11.835 12.9974C11.835 11.5624 12.895 10.7036 14.3012 10.7036C15.6637 10.7036 16.88 11.4986 16.88 14.0624C16.88 16.3961 15.9775 17.6224 14.2 17.6224ZM14.2775 14.2036C14.9075 14.2036 15.4437 13.7836 15.4437 12.9886C15.4437 12.1974 14.9462 11.7286 14.2687 11.7286C13.6187 11.7286 13.11 12.1974 13.11 12.9786C13.11 13.7786 13.6325 14.2036 14.2775 14.2036Z" fill="white"/>
<path d="M5.62506 3.125C5.62506 2.95924 5.55921 2.80027 5.442 2.68306C5.32479 2.56585 5.16582 2.5 5.00006 2.5C4.8343 2.5 4.67533 2.56585 4.55812 2.68306C4.4409 2.80027 4.37506 2.95924 4.37506 3.125V15.3663L2.94256 13.9325C2.88445 13.8744 2.81546 13.8283 2.73954 13.7968C2.66361 13.7654 2.58224 13.7492 2.50006 13.7492C2.41788 13.7492 2.3365 13.7654 2.26058 13.7968C2.18465 13.8283 2.11567 13.8744 2.05756 13.9325C1.99945 13.9906 1.95335 14.0596 1.9219 14.1355C1.89045 14.2114 1.87427 14.2928 1.87427 14.375C1.87427 14.4572 1.89045 14.5386 1.9219 14.6145C1.95335 14.6904 1.99945 14.7594 2.05756 14.8175L4.55756 17.3162L4.56631 17.325C4.68365 17.4394 4.84146 17.5028 5.00535 17.5014C5.16924 17.5 5.32594 17.4339 5.44131 17.3175L7.94131 14.8175C8.05867 14.7003 8.12466 14.5413 8.12478 14.3754C8.1249 14.2096 8.05912 14.0505 7.94193 13.9331C7.82474 13.8158 7.66573 13.7498 7.49987 13.7497C7.33402 13.7495 7.17491 13.8153 7.05756 13.9325L5.62506 15.3663V3.125Z" fill="white"/>
</svg>
