<svg width="20" height="20" viewBox="0 0 20 20" fill="none" xmlns="http://www.w3.org/2000/svg">
<path fill-rule="evenodd" clip-rule="evenodd" d="M14.2 8.87264C12.7787 8.87264 12.065 8.05139 11.9975 7.27514H13.2525C13.325 7.55389 13.6812 7.83764 14.2187 7.83764C15.2487 7.83764 15.6737 6.80139 15.635 5.51764H15.5612C15.3762 6.00514 14.8487 6.44514 13.985 6.44514C12.8475 6.44514 11.835 5.67889 11.835 4.24764C11.835 2.81264 12.895 1.95264 14.3012 1.95264C15.6637 1.95264 16.88 2.74889 16.88 5.31264C16.88 7.64639 15.9775 8.87264 14.2 8.87264ZM14.2775 5.45389C14.9075 5.45389 15.4437 5.03389 15.4437 4.23889C15.4437 3.44764 14.9462 2.97889 14.2687 2.97889C13.6187 2.97889 13.11 3.44764 13.11 4.22889C13.11 5.02889 13.6325 5.45389 14.2775 5.45389Z" fill="white"/>
<path d="M15.5476 10.835V17.5H14.2376V12.105H14.1738L12.6601 13.1788V11.9675L14.2376 10.835H15.5451H15.5476ZM5.62506 3.125C5.62506 2.95924 5.55921 2.80027 5.442 2.68306C5.32479 2.56585 5.16582 2.5 5.00006 2.5C4.8343 2.5 4.67533 2.56585 4.55812 2.68306C4.44091 2.80027 4.37506 2.95924 4.37506 3.125V15.3663L2.94256 13.9325C2.88445 13.8744 2.81546 13.8283 2.73954 13.7968C2.66361 13.7654 2.58224 13.7492 2.50006 13.7492C2.41788 13.7492 2.3365 13.7654 2.26058 13.7968C2.18465 13.8283 2.11567 13.8744 2.05756 13.9325C1.99945 13.9906 1.95335 14.0596 1.9219 14.1355C1.89045 14.2114 1.87427 14.2928 1.87427 14.375C1.87427 14.4572 1.89045 14.5386 1.9219 14.6145C1.95335 14.6904 1.99945 14.7594 2.05756 14.8175L4.55756 17.3162L4.56631 17.325C4.68365 17.4394 4.84146 17.5028 5.00535 17.5014C5.16924 17.5 5.32594 17.4339 5.44131 17.3175L7.94131 14.8175C8.05867 14.7003 8.12466 14.5413 8.12478 14.3754C8.1249 14.2096 8.05912 14.0505 7.94193 13.9331C7.82474 13.8158 7.66573 13.7498 7.49987 13.7497C7.33402 13.7495 7.17491 13.8153 7.05756 13.9325L5.62506 15.3663V3.125Z" fill="white"/>
</svg>
