<svg width="16" height="16" viewBox="0 0 16 16" fill="none" xmlns="http://www.w3.org/2000/svg">
<path d="M15.4165 8.80416L13.6407 8.92963C13.164 8.96549 12.9673 9.56298 13.3308 9.87367L14.6954 11.0209C14.9934 11.2718 15.4463 11.1404 15.5654 10.7699L15.9706 9.52119C16.0958 9.1507 15.8038 8.77429 15.4165 8.80416Z" fill="#FCD53F"/>
<path d="M11.2852 0.405808L10.8738 2.10773C10.7595 2.56549 11.2509 2.93521 11.6395 2.68285L13.0908 1.75561C13.4051 1.55607 13.4223 1.08657 13.1194 0.863565L12.1023 0.106506C11.7994 -0.122372 11.3766 0.0360819 11.2852 0.405808Z" fill="#FCD53F"/>
<path d="M2.53228 1.75748L3.97796 2.68473C4.36652 2.93708 4.85791 2.57323 4.74934 2.1096L4.33795 0.407678C4.24653 0.0379518 3.82368 -0.120497 3.52083 0.102513L2.50371 0.859572C2.20086 1.09432 2.21801 1.55794 2.53228 1.75748Z" fill="#FCD53F"/>
<path d="M1.24868 10.9814L2.55722 9.85462C2.9115 9.54945 2.72293 8.95671 2.2658 8.92737L0.562983 8.80413C0.191563 8.77479 -0.0884301 9.14451 0.0258528 9.50837L0.414415 10.7349C0.528698 11.0988 0.968687 11.2279 1.24868 10.9814Z" fill="#FCD53F"/>
<path d="M9.02622 15.2607L8.38623 13.635C8.21481 13.1949 7.60911 13.1949 7.43768 13.635L6.7977 15.2607C6.66056 15.6128 6.91198 16.0001 7.2834 16.0001H8.54051C8.91193 15.9943 9.16336 15.6128 9.02622 15.2607Z" fill="#FCD53F"/>
<path d="M8.89463 0.77713L9.88135 2.96008C10.0675 3.36757 10.434 3.6528 10.8625 3.71684L13.1799 4.08357C14.2287 4.24657 14.6515 5.56796 13.9185 6.34803L12.1537 8.21661C11.8661 8.51932 11.7364 8.95008 11.8041 9.36922L12.2101 11.9364C12.3849 13.0424 11.2459 13.869 10.293 13.3276L8.34773 12.2158C7.953 11.9888 7.47941 11.9888 7.08468 12.2158L5.13941 13.3276C4.18651 13.869 3.04753 13.0424 3.22233 11.9364L3.6283 9.36922C3.69596 8.95008 3.56628 8.51932 3.27871 8.21661L1.51387 6.34803C0.775223 5.56215 1.20375 4.24657 2.25251 4.08357L4.56993 3.71684C4.99844 3.64698 5.36495 3.36175 5.551 2.96008L6.53777 0.77713C7.00576 -0.259043 8.42664 -0.259043 8.89463 0.77713Z" fill="#FCD53F"/>
</svg>
